HIERARCHY
ROOT Hips
{
	OFFSET -0.001795 -0.223333 0.028219
	CHANNELS 6 Xposition Yposition Zposition Zrotation Yrotation Xrotation 
	JOINT LeftUpLeg
	{
		OFFSET 0.069520 -0.091406 -0.006815
		CHANNELS 3 Zrotation Yrotation Xrotation
		JOINT LeftLeg
		{
			OFFSET 0.034277 -0.375199 -0.004496
			CHANNELS 3 Zrotation Yrotation Xrotation
			JOINT LeftFoot
			{
				OFFSET -0.013596 -0.397961 -0.043693
				CHANNELS 3 Zrotation Yrotation Xrotation
				JOINT LeftToe
				{
					OFFSET 0.026358 -0.055791 0.119288
					CHANNELS 3 Zrotation Yrotation Xrotation
					End Site
					{
						OFFSET 0.000000 0.000000 0.000000
					}
				}
			}
		}
	}
	JOINT RightUpLeg
	{
		OFFSET -0.067670 -0.090522 -0.004320
		CHANNELS 3 Zrotation Yrotation Xrotation
		JOINT RightLeg
		{
			OFFSET -0.038290 -0.382569 -0.008850
			CHANNELS 3 Zrotation Yrotation Xrotation
			JOINT RightFoot
			{
				OFFSET 0.015774 -0.398415 -0.042312
				CHANNELS 3 Zrotation Yrotation Xrotation
				JOINT RightToe
				{
					OFFSET -0.025372 -0.048144 0.123348
					CHANNELS 3 Zrotation Yrotation Xrotation
					End Site
					{
						OFFSET 0.000000 0.000000 0.000000
					}
				}
			}
		}
	}
	JOINT Spine
	{
		OFFSET -0.002533 0.108963 -0.026696
		CHANNELS 3 Zrotation Yrotation Xrotation
		JOINT Spine1
		{
			OFFSET 0.005487 0.135180 0.001092
			CHANNELS 3 Zrotation Yrotation Xrotation
			JOINT Spine2
			{
				OFFSET 0.001457 0.052922 0.025425
				CHANNELS 3 Zrotation Yrotation Xrotation
				JOINT Neck
				{
					OFFSET -0.002778 0.213870 -0.042857
					CHANNELS 3 Zrotation Yrotation Xrotation
					JOINT Head
					{
						OFFSET 0.005152 0.064970 0.051349
						CHANNELS 3 Zrotation Yrotation Xrotation
						End Site
						{
							OFFSET 0.000000 0.000000 0.000000
						}
					}
				}
				JOINT LeftShoulder
				{
					OFFSET 0.078845 0.121749 -0.034090
					CHANNELS 3 Zrotation Yrotation Xrotation
					JOINT LeftArm
					{
						OFFSET 0.090977 0.030469 -0.008868
						CHANNELS 3 Zrotation Yrotation Xrotation
						JOINT LeftForeArm
						{
							OFFSET 0.259612 -0.012772 -0.027456
							CHANNELS 3 Zrotation Yrotation Xrotation
							JOINT LeftHand
							{
								OFFSET 0.249234 0.008986 -0.001171
								CHANNELS 3 Zrotation Yrotation Xrotation
								End Site
								{
									OFFSET 0.000000 0.000000 0.000000
								}
							}
						}
					}
				}
				JOINT RightShoulder
				{
					OFFSET -0.081759 0.118833 -0.038615
					CHANNELS 3 Zrotation Yrotation Xrotation
					JOINT RightArm
					{
						OFFSET -0.096012 0.032551 -0.009143
						CHANNELS 3 Zrotation Yrotation Xrotation
						JOINT RightForeArm
						{
							OFFSET -0.253742 -0.013329 -0.021401
							CHANNELS 3 Zrotation Yrotation Xrotation
							JOINT RightHand
							{
								OFFSET -0.255298 0.007772 -0.005559
								CHANNELS 3 Zrotation Yrotation Xrotation
								End Site
								{
									OFFSET 0.000000 0.000000 0.000000
								}
							}
						}
					}
				}
			}
		}
	}
}
MOTION
Frames: 9
Frame Time: 0.050000
0.007473 0.958405 0.004302 -1.095124 2.891033 4.761039 4.761023 -0.318007 -3.594365 2.671529 -0.056572 -3.816976 -2.455057 0.703485 11.504433 0.000000 0.000000 0.000000 -2.931628 0.381698 -3.882497 -1.336943 0.132881 -0.263096 -2.631039 -9.495673 11.514644 0.000000 0.000000 0.000000 -1.381450 0.148839 -4.349942 -1.393433 0.674582 -0.864632 2.141489 -2.310159 5.409193 -1.242367 1.908219 -19.584787 0.000000 0.000000 0.000000 -16.712215 -6.547729 2.082733 -57.370748 -13.512371 -0.398798 -6.882064 -16.029577 1.585771 0.000000 0.000000 0.000000 16.020886 13.130188 4.974788 57.584364 12.975060 0.666095 6.811802 19.925525 1.680929 0.000000 0.000000 0.000000 
0.007861 0.958508 0.003876 -1.158333 3.235067 4.967828 4.796858 -0.340911 -3.954400 2.710499 -0.070621 -3.590129 -2.636912 0.400849 11.417135 0.000000 0.000000 0.000000 -2.945901 0.402854 -4.166553 -1.288732 0.139188 -0.046615 -2.853514 -9.881280 11.534815 0.000000 0.000000 0.000000 -1.446298 0.141741 -4.109149 -1.459433 0.707086 -0.961956 2.126456 -2.166340 5.244658 -1.367319 2.025202 -19.815977 0.000000 0.000000 0.000000 -16.419514 -6.787193 2.129723 -57.404262 -14.259569 -0.000769 -6.579054 -15.818985 1.514820 0.000000 0.000000 0.000000 15.937048 13.169989 5.071935 57.695309 13.613167 0.997122 6.697987 19.971840 1.675612 0.000000 0.000000 0.000000 
0.008280 0.958773 0.003201 -1.192362 3.459911 4.979914 4.800763 -0.355839 -4.217757 2.671451 -0.086399 -3.243475 -2.793120 0.138555 11.356663 0.000000 0.000000 0.000000 -2.926912 0.422081 -4.437119 -1.198109 0.148824 0.343761 -3.076150 -10.263884 11.443875 0.000000 0.000000 0.000000 -1.637094 0.128129 -3.644781 -1.316705 0.643883 -1.059383 2.036434 -2.003998 4.953734 -1.499739 2.129646 -19.741082 0.000000 0.000000 0.000000 -16.363439 -6.823792 2.070495 -57.254764 -14.704212 0.250290 -6.262280 -15.883716 1.470589 0.000000 0.000000 0.000000 16.064945 13.521163 5.327033 57.264131 14.025004 1.207868 6.858522 20.110735 1.719502 0.000000 0.000000 0.000000 
0.008588 0.958979 0.002198 -1.231454 3.597230 5.212404 4.720786 -0.380886 -4.636093 2.813834 -0.110769 -2.989466 -2.838742 0.010588 11.208392 0.000000 0.000000 0.000000 -3.033663 0.461385 -4.975632 -1.120720 0.154949 0.652698 -3.211295 -10.453595 11.137207 0.000000 0.000000 0.000000 -1.859290 0.120011 -3.288631 -1.333364 0.651954 -1.095612 2.141356 -1.750475 4.664052 -1.473021 2.160374 -20.025753 0.000000 0.000000 0.000000 -16.280770 -7.141131 2.156933 -57.371283 -15.577831 0.727500 -5.859095 -15.520523 1.373893 0.000000 0.000000 0.000000 15.823626 13.779114 5.519306 57.131368 14.945809 1.680621 7.169474 20.319455 1.795327 0.000000 0.000000 0.000000 
0.008609 0.958994 0.000667 -1.255894 3.614901 5.357851 4.848441 -0.388237 -4.760419 2.683131 -0.091969 -3.141799 -2.884051 -0.033218 11.282864 0.000000 0.000000 0.000000 -2.988117 0.494464 -5.405337 -1.091017 0.170857 1.063907 -3.423603 -10.852159 11.086293 0.000000 0.000000 0.000000 -2.057032 0.113015 -2.922072 -1.360655 0.662386 -1.030614 2.331019 -1.502812 4.212033 -1.554038 2.233760 -20.169885 0.000000 0.000000 0.000000 -16.459148 -7.472936 2.262274 -57.289383 -16.157759 1.064361 -5.369131 -15.473826 1.298281 0.000000 0.000000 0.000000 16.020300 14.606403 6.002160 56.564707 16.301112 2.352364 7.232349 20.190029 1.794208 0.000000 0.000000 0.000000 
0.008144 0.959128 -0.001350 -1.218484 3.455480 5.678894 4.959823 -0.421238 -5.404995 2.646281 -0.103981 -2.883673 -2.972831 -0.273667 11.139601 0.000000 0.000000 0.000000 -3.045275 0.556618 -6.240434 -0.969540 0.177791 1.539280 -3.414626 -10.779864 10.640010 0.000000 0.000000 0.000000 -2.261660 0.108925 -2.544951 -1.442742 0.709010 -1.462975 2.431910 -1.227612 4.201456 -1.338527 2.186402 -21.288969 0.000000 0.000000 0.000000 -16.826152 -8.002912 2.487245 -57.184955 -16.938391 1.459958 -4.688506 -15.987768 1.246967 0.000000 0.000000 0.000000 16.349744 15.590348 6.591351 56.161917 18.229671 3.262948 7.164315 21.490374 1.919384 0.000000 0.000000 0.000000 
0.007178 0.959227 -0.003708 -1.334631 3.016932 5.981519 5.106595 -0.438700 -5.816428 2.710698 -0.107142 -2.941144 -3.082410 -0.342413 11.530728 0.000000 0.000000 0.000000 -2.956807 0.622171 -7.052814 -0.855435 0.184549 2.012689 -3.316467 -10.691108 10.946233 0.000000 0.000000 0.000000 -2.480460 0.108650 -2.246212 -1.388787 0.682910 -1.489297 2.604085 -0.745364 3.741451 -1.265018 2.200270 -21.920489 0.000000 0.000000 0.000000 -16.752639 -8.604577 2.735702 -57.020373 -17.712322 1.895312 -3.959373 -17.316091 1.239215 0.000000 0.000000 0.000000 16.487667 16.572880 7.171937 55.791991 20.914925 4.578496 7.147148 22.751978 2.049464 0.000000 0.000000 0.000000 
0.006010 0.959379 -0.005945 -1.402292 2.440239 6.206032 5.183755 -0.456877 -6.291690 2.803146 -0.133638 -2.646355 -3.014500 -0.418659 11.275605 0.000000 0.000000 0.000000 -2.846525 0.691553 -7.886894 -0.706358 0.189780 2.566603 -3.086063 -10.240698 10.547060 0.000000 0.000000 0.000000 -2.511010 0.112197 -2.226824 -1.576908 0.767229 -1.547630 2.751343 -0.338464 3.819862 -0.952650 2.059150 -22.234452 0.000000 0.000000 0.000000 -16.749432 -9.331896 3.098430 -56.567930 -18.878312 2.448682 -3.440739 -20.136035 1.359904 0.000000 0.000000 0.000000 17.232155 17.827979 7.942638 54.336432 23.920650 5.827327 7.449172 25.128109 2.359534 0.000000 0.000000 0.000000 
0.004879 0.959479 -0.007790 -1.406222 1.955679 6.371204 5.240226 -0.468007 -6.628333 2.786387 -0.139327 -2.562003 -3.166782 -0.660826 11.459544 0.000000 0.000000 0.000000 -2.846092 0.738869 -8.476826 -0.891611 0.236534 3.062014 -2.720528 -9.539004 10.329762 0.000000 0.000000 0.000000 -2.623168 0.118456 -2.385637 -1.586711 0.767016 -1.377177 2.817218 -0.053260 3.589018 -1.237027 2.197084 -22.009201 0.000000 0.000000 0.000000 -16.307387 -9.445130 3.151739 -56.391614 -20.627309 3.334415 -2.858065 -24.814863 1.568715 0.000000 0.000000 0.000000 16.815703 18.812452 8.427023 53.216297 26.606453 6.948285 7.487657 29.289506 2.817097 0.000000 0.000000 0.000000 
